# xmcd
#
# Track frame offsets:
#	150
#	14188
#	26512
#	39477
#	55445
#	72060
#	85483
#	100225
#	114340
#	136062
#	152363
#	167449
#	182612
#	201817
#	225906
#	247744
#	263585
#	281996
#	296781
#
# Disc length: 4166 seconds
# Revision: 0
# Processed by: cddbd v1.5.2PL0 Copyright (c) Steve Scherf et al.
# Submitted via: dBpowerAMP V12.0
#
DISCID=fc104413
DTITLE=Lorrie Morgan - The Color Of Roses
DYEAR=1900
DGENRE=
TTITLE0=Trainwreck Of Emotions
TTITLE1=What Part Of No
TTITLE2=Exerpt For Monday
TTITLE3=Good As I Was To You
TTITLE4=Picture Of Me (Without You)
TTITLE5=Go Away
TTITLE6=I Didn't Know My Own Strength
TTITLE7=1-800 Used To Be
TTITLE8=Something In Red
TTITLE9=Half Enough
TTITLE10=Harper Valley PTA
TTITLE11=Watch Me
TTITLE12=The Color Of Roses
TTITLE13=Secret Love
TTITLE14=Good Morning Heartache
TTITLE15=Fly Me To The Moon
TTITLE16=My Favorite Things
TTITLE17=Will You Still Love Me Tomorro
TTITLE18=Help Me Make It Through The Ni
EXTD=
EXTT0=
EXTT1=
EXTT2=
EXTT3=
EXTT4=
EXTT5=
EXTT6=
EXTT7=
EXTT8=
EXTT9=
EXTT10=
EXTT11=
EXTT12=
EXTT13=
EXTT14=
EXTT15=
EXTT16=
EXTT17=
EXTT18=
PLAYORDER=
